<svg width="1024" height="1024" viewBox="0 0 1024 1024" fill="none" xmlns="http://www.w3.org/2000/svg">
<path d="M481.107 843.257C467.433 842.246 450.172 839.069 419.947 832.004C374.608 821.406 360.465 817.456 342.838 810.467C327.949 804.563 319.644 799.981 299.153 786.364C274.562 770.023 266.34 762.669 253.56 745.583C241.212 729.076 237.556 723.017 234.546 714.069C231.027 703.611 220.892 660.111 220.892 655.468C220.892 649.58 230.886 607.243 236.007 591.44C240.519 577.516 244.376 568.993 251.252 557.754C256.745 548.775 256.723 548.92 253.964 539.812C248.941 523.23 239.661 485.866 237.122 472.008C235.799 464.778 235.622 461.421 235.583 442.745C235.531 418.16 235.557 417.967 243.279 386.941C248.317 366.7 253.474 348.928 256.904 339.985C260.685 330.13 270.727 314.972 286.499 295.314C301.951 276.055 308.055 270.4 328.416 256.48C350.018 241.711 370.252 231.018 384.219 226.989C412.25 218.903 465.431 206.699 480.514 204.89C490.663 203.673 523.975 203.267 540.06 204.164C557.141 205.116 566.117 206.544 593.918 212.732C657.073 226.788 683.77 236.667 714.956 257.518C723.94 263.524 734.692 271.536 734.692 272.223C734.692 273.728 743.98 284.777 747.112 286.997C749.853 288.941 752.686 292.331 759.102 301.343C763.722 307.833 768.108 314.735 768.847 316.68C771.765 324.36 780.065 359.283 782.748 375.166L783.977 382.446L782.387 391.159C779.006 409.679 769.534 447.347 765.689 457.564C763.583 463.157 763.534 464.525 765.38 466.06C767.21 467.581 771.445 473.764 773.649 478.132C779.728 490.185 786.568 511.03 793.187 537.679C799.702 563.905 799.654 563.495 799.669 593.142C799.68 615.183 799.497 620.107 798.425 626.488C796.722 636.62 785.792 680.253 782.315 690.798C776.207 709.319 767.925 722.841 745.219 751.365C731.091 769.112 720.483 778.231 692.538 796.653C668.894 812.24 654.363 818.234 618.662 827.13C583.316 835.938 561.908 840.259 543.76 842.249C532.696 843.462 492.594 844.108 481.107 843.257ZM516.922 810.597C541.062 809.727 554.872 807.467 592.121 798.293C634.238 787.921 647.002 782.44 673.979 763.146C694.923 748.167 702.846 740.603 716.135 722.899C737.964 693.816 742.286 685.166 750.021 655.07C759.66 617.566 760.525 611.735 760.526 584.295C760.527 561.043 760.023 556.165 755.712 537.745C747.872 504.24 739.016 479.482 732.038 471.563C730.503 469.821 729.248 467.946 729.248 467.396C729.248 466.846 730.328 463.098 731.648 459.068C734.609 450.03 740.624 425.686 743.93 409.36C745.929 399.489 746.338 396.171 746.061 392.045C745.389 382.041 735.422 338.292 732.503 332.532C730.665 328.907 717.503 310.111 711.89 303.095C702.848 291.794 679.81 275.261 659.493 265.492C637.61 254.97 607.442 246.133 559.758 236.277C535.643 231.293 492.354 230.96 468.743 235.577C448.111 239.612 406.128 250.109 391.531 254.883C382.442 257.855 370.781 264.217 354.276 275.207C341.54 283.688 332.303 290.686 326.83 296.001C314.382 308.09 293.143 336.66 286.545 350.193C282.038 359.435 273.78 388.71 267.731 416.885C265.878 425.515 265.651 427.96 265.318 442.852C264.911 461.037 265.55 469.877 268.215 482.896C270.479 493.961 278.233 525.27 281.166 535.194C282.594 540.023 283.371 543.844 283.104 544.721C282.859 545.526 281.149 548.703 279.303 551.78C269.722 567.754 264.267 583.894 256.353 619.682C251.879 639.913 251.894 639.761 253.558 647.944C255.864 659.286 261.587 683.771 263.495 690.457C265.668 698.071 268.497 703.876 274.006 712.027C289.918 735.568 298.176 743.611 325.013 761.703C350.672 779 365.046 784.83 409.255 795.871C452.491 806.669 468.045 809.7 484.597 810.551C498.302 811.257 498.605 811.257 516.922 810.597Z" fill="#1989B8" style="fill:#1989B8;fill:color(display-p3 0.0980 0.5373 0.7216);fill-opacity:1;"/>
</svg>
